<?xml version="1.0" standalone="no"?>
<!DOCTYPE svg PUBLIC "-//W3C//DTD SVG 20010904//EN"
 "http://www.w3.org/TR/2001/REC-SVG-20010904/DTD/svg10.dtd">
<svg version="1.0" xmlns="http://www.w3.org/2000/svg"
 width="260.000000pt" height="260.000000pt" viewBox="0 0 260.000000 260.000000"
 preserveAspectRatio="xMidYMid meet">
<metadata>
Created by potrace 1.11, written by Peter Selinger 2001-2013
</metadata>
<g transform="translate(0.000000,260.000000) scale(0.100000,-0.100000)"
fill="#000000" stroke="none">
<path d="M30 2596 c0 -2 125 -78 278 -170 1024 -617 1433 -866 1451 -882 8 -8
13 -15 10 -18 -2 -2 -91 6 -196 18 -106 12 -193 19 -192 16 0 -4 512 -424 777
-639 74 -59 83 -71 54 -71 -25 0 -422 59 -439 65 -7 2 -13 2 -13 -2 0 -5 148
-165 341 -368 41 -44 140 -149 220 -234 79 -84 174 -186 211 -225 l67 -71 1
1293 0 1292 -1285 0 c-707 0 -1285 -2 -1285 -4z"/>
<path d="M0 1290 l0 -1290 1292 0 c710 0 1289 2 1287 4 -2 2 -83 51 -179 108
-96 58 -314 190 -485 293 -170 103 -389 234 -485 292 -299 180 -584 356 -600
370 -19 18 -7 17 210 -7 96 -10 175 -18 176 -17 2 1 -72 63 -164 137 -146 119
-607 498 -670 552 -13 11 -22 22 -19 24 2 3 53 -3 113 -12 288 -43 349 -51
353 -48 2 2 -56 68 -130 146 -496 530 -692 738 -695 738 -2 0 -4 -580 -4
-1290z"/>
</g>
</svg>
