<?xml version="1.0" standalone="no"?>
<!DOCTYPE svg PUBLIC "-//W3C//DTD SVG 20010904//EN"
 "http://www.w3.org/TR/2001/REC-SVG-20010904/DTD/svg10.dtd">
<svg version="1.0" xmlns="http://www.w3.org/2000/svg"
 width="400.000000pt" height="400.000000pt" viewBox="0 0 400.000000 400.000000"
 preserveAspectRatio="xMidYMid meet">
<metadata>
Created by potrace 1.14, written by Peter Selinger 2001-2017
</metadata>
<g transform="translate(0.000000,400.000000) scale(0.100000,-0.100000)"
fill="#000000" stroke="none">
<path d="M1668 3985 c-55 -20 -86 -46 -97 -80 -6 -18 -8 -107 -5 -225 5 -205
7 -561 4 -570 -1 -3 -3 -18 -4 -35 -4 -44 -16 -128 -21 -135 -14 -23 0 -233
16 -238 5 -2 7 -7 5 -11 -3 -4 -1 -25 4 -47 8 -37 12 -64 26 -164 3 -25 7 -80
9 -123 2 -75 1 -79 -22 -88 -13 -5 -28 -9 -32 -9 -10 0 -42 91 -46 132 -2 18
-4 34 -5 36 -2 1 -4 11 -5 22 -1 11 -3 21 -4 23 -2 1 -4 18 -6 37 -4 46 -27
170 -40 220 -16 60 -31 104 -47 140 -33 73 -37 82 -58 149 -11 35 -18 67 -15
71 3 5 1 11 -5 15 -5 3 -10 21 -10 40 0 19 -5 37 -10 40 -6 4 -8 10 -5 14 2 5
0 35 -6 67 -6 32 -12 73 -15 89 -7 53 -11 79 -18 115 -14 77 -17 96 -21 130
-12 84 -16 103 -29 128 -33 64 -117 105 -195 95 -46 -5 -109 -41 -135 -76 -22
-29 -25 -92 -10 -222 4 -33 7 -77 8 -97 0 -21 3 -38 6 -38 3 0 6 -15 7 -32 3
-34 10 -83 13 -83 1 0 3 -17 5 -38 2 -21 6 -50 10 -65 4 -15 9 -40 11 -57 2
-16 7 -50 10 -75 4 -25 7 -53 7 -62 1 -10 4 -18 7 -18 3 0 5 -29 5 -65 0 -36
2 -65 5 -65 3 0 6 -24 7 -53 3 -79 7 -107 16 -107 5 0 6 -4 3 -8 -3 -5 2 -22
10 -38 9 -16 15 -30 15 -31 -1 -2 0 -5 0 -8 1 -3 2 -13 4 -22 1 -10 5 -25 8
-33 3 -8 8 -28 11 -45 3 -16 12 -59 21 -95 23 -91 28 -113 40 -170 3 -14 8
-56 11 -95 l6 -70 -43 -27 c-60 -37 -72 -26 -104 92 -5 22 -38 119 -45 135 -5
11 -23 57 -40 103 -17 45 -36 82 -41 82 -5 0 -9 5 -9 11 0 6 -13 29 -28 52
-33 49 -72 131 -72 151 0 8 -5 18 -11 21 -6 4 -8 13 -5 20 3 8 1 15 -3 17 -6
2 -48 123 -56 163 -6 28 -67 189 -84 223 -51 100 -136 139 -224 104 -62 -26
-92 -79 -81 -146 11 -71 13 -80 19 -126 4 -25 11 -63 17 -85 5 -22 12 -47 14
-55 1 -8 26 -80 54 -160 29 -80 53 -154 55 -165 4 -30 17 -79 24 -90 3 -5 6
-15 7 -21 1 -6 17 -51 37 -100 35 -91 49 -127 48 -131 0 -2 8 -23 19 -49 11
-25 20 -54 20 -65 0 -10 5 -19 11 -19 5 0 8 -4 4 -10 -3 -5 -1 -17 4 -27 9
-17 22 -52 23 -63 0 -3 4 -16 9 -29 13 -34 19 -77 23 -167 2 -43 6 -90 10
-104 3 -14 8 -43 11 -64 6 -46 15 -85 22 -106 3 -8 7 -24 9 -35 10 -68 15
-116 19 -160 2 -27 4 -50 5 -50 1 0 3 -13 5 -30 2 -16 7 -42 10 -57 3 -16 7
-39 9 -53 5 -30 46 -166 55 -180 3 -5 6 -14 6 -20 1 -9 6 -24 25 -70 4 -11 16
-40 25 -65 9 -25 22 -56 28 -70 6 -14 11 -27 12 -30 0 -3 18 -41 38 -85 31
-65 53 -94 123 -162 47 -46 92 -83 100 -83 8 0 14 -4 14 -9 0 -5 26 -24 58
-42 165 -95 292 -135 497 -158 127 -15 408 -1 421 20 3 5 9 7 14 4 12 -7 110
17 110 27 0 5 4 7 8 4 13 -8 94 23 110 42 7 9 10 11 6 3 -5 -11 -3 -13 10 -8
10 4 20 7 22 7 3 0 2 5 -2 12 -4 6 -3 8 3 5 12 -7 63 14 63 26 0 5 5 5 10 2 6
-3 10 -1 10 5 0 6 4 9 8 6 5 -3 22 7 38 22 16 15 33 28 37 29 19 3 75 48 71
55 -3 4 1 8 9 8 20 0 195 173 253 250 50 67 71 94 89 114 17 18 53 70 54 79 1
4 1 12 1 18 0 5 5 7 11 4 11 -7 28 9 99 95 63 77 90 107 133 154 37 40 104
161 111 201 2 11 15 48 29 83 14 34 24 62 22 62 -2 0 14 33 36 73 21 39 46 88
56 107 9 19 21 38 26 41 5 3 7 8 6 10 -2 2 10 26 27 54 58 98 104 189 110 215
2 8 6 56 8 105 5 98 27 195 54 235 9 14 17 27 17 30 1 3 14 32 28 64 41 88 43
113 12 142 -23 22 -42 27 -97 27 -36 0 -121 -35 -171 -71 -97 -69 -257 -251
-257 -291 0 -6 -4 -11 -8 -11 -10 0 -35 -65 -40 -103 -4 -35 -40 -107 -53
-107 -5 0 -9 -8 -9 -19 0 -10 -7 -24 -15 -31 -8 -7 -15 -16 -15 -21 0 -11
-101 -153 -112 -157 -5 -2 -8 -10 -8 -17 0 -26 -37 -57 -103 -85 l-67 -28 -15
29 c-9 16 -15 30 -14 31 0 2 -13 32 -29 68 -29 66 -47 119 -44 133 1 4 -2 7
-6 7 -5 0 -9 6 -9 13 -1 16 -11 82 -13 82 -1 0 -3 18 -5 40 -9 84 -15 131 -20
155 -19 85 -21 130 -11 260 4 47 9 112 10 145 2 33 6 76 9 95 14 87 20 215 22
465 1 149 3 322 3 385 2 158 -7 213 -42 267 -45 69 -150 96 -228 59 -44 -21
-62 -46 -83 -118 -23 -81 -24 -85 -38 -228 -1 -14 -6 -28 -12 -32 -6 -5 -5 -8
3 -8 8 0 10 -5 6 -12 -5 -7 -9 -28 -10 -48 -1 -19 -3 -35 -4 -35 -1 0 -3 -16
-5 -35 -3 -44 -14 -153 -19 -202 -3 -20 -10 -56 -17 -80 -7 -24 -13 -46 -15
-50 -1 -5 -3 -10 -4 -13 -1 -3 -4 -9 -5 -15 -1 -5 -3 -11 -5 -12 -4 -6 -21
-96 -25 -133 -9 -102 -19 -226 -19 -260 -1 -22 -5 -46 -9 -52 -5 -8 -3 -13 3
-13 7 0 8 -6 2 -17 -5 -10 -8 -37 -7 -60 1 -24 -2 -43 -7 -43 -4 0 -8 -6 -8
-14 0 -7 -12 -18 -27 -24 -37 -14 -140 -15 -148 -2 -16 26 -24 157 -30 470 -5
223 -5 236 -18 275 -8 27 -17 88 -22 155 -3 30 -8 84 -11 120 -3 36 -8 133
-11 215 -5 176 -6 185 -13 185 -3 0 -6 19 -6 43 -2 74 -8 118 -16 123 -5 3 -6
9 -3 14 8 13 -70 88 -102 101 -44 16 -126 18 -165 4z"/>
</g>
</svg>
