<?xml version="1.0" standalone="no"?>
<!DOCTYPE svg PUBLIC "-//W3C//DTD SVG 20010904//EN"
 "http://www.w3.org/TR/2001/REC-SVG-20010904/DTD/svg10.dtd">
<svg version="1.0" xmlns="http://www.w3.org/2000/svg"
 width="260.000000pt" height="260.000000pt" viewBox="0 0 260.000000 260.000000"
 preserveAspectRatio="xMidYMid meet">
<metadata>
Created by potrace 1.14, written by Peter Selinger 2001-2017
</metadata>
<g transform="translate(0.000000,260.000000) scale(0.100000,-0.100000)"
fill="#000000" stroke="none">
<path d="M1140 2589 c-276 -41 -496 -157 -642 -339 -39 -50 -105 -171 -113
-210 -2 -14 -9 -47 -15 -75 -14 -68 -18 -162 -8 -208 4 -20 10 -54 13 -75 8
-58 99 -229 165 -312 87 -109 163 -228 183 -285 10 -28 20 -82 24 -120 7 -79
19 -110 69 -164 32 -36 40 -59 43 -133 1 -9 7 -23 14 -30 19 -21 19 -36 -4
-59 l-21 -21 21 -19 c21 -20 19 -42 -6 -67 -10 -11 -9 -17 7 -34 19 -21 19
-22 2 -53 -18 -30 -18 -31 2 -58 17 -23 18 -31 9 -46 -11 -17 -4 -26 49 -73
33 -29 65 -55 72 -57 6 -2 25 -18 42 -35 17 -17 40 -38 51 -47 12 -10 25 -24
29 -32 16 -28 122 -37 269 -23 57 5 83 12 90 23 10 16 51 64 87 101 9 9 33 31
54 47 50 41 74 67 74 81 0 6 10 18 22 26 l22 15 -22 19 c-27 23 -27 32 0 61
l22 23 -22 20 c-22 21 -21 41 5 71 11 13 10 18 -6 33 -20 19 -18 45 5 59 14 8
8 37 -10 49 -8 5 -7 14 2 29 8 12 15 37 17 57 2 19 9 39 17 43 7 5 9 9 5 9 -4
0 7 16 26 35 36 37 47 67 54 150 2 28 9 65 14 83 6 18 12 39 13 45 1 7 9 23
18 37 9 14 22 37 29 51 8 14 38 59 67 100 156 220 215 344 229 479 8 81 8 80
0 145 -20 162 -105 326 -230 442 -115 107 -306 203 -457 228 -19 3 -46 8 -60
10 -49 10 -266 12 -320 4z"/>
</g>
</svg>
